Coordinates
version=1
nRows=60
nColumns=12
inDegrees=yes

Units are S.I. units (second, meters, Newtons, ...)
Angles are in degrees

endheader
time	SC_y	SC_z	SC_x	AC_y	AC_z	AC_x	GH_y	GH_z	GH_yy	EL_x	PS_y
       0.0              -21.95          39.23          36.14           34.3         -15.82         -16.97         -155.3          68.56         -160.4          117.9          139.5
   0.04377              -21.95          39.22          36.14           34.3         -15.82         -16.96         -155.3          68.56         -160.4          117.9          139.4
   0.08754              -21.95          39.22          36.13           34.3         -15.82         -16.96         -155.3          68.56         -160.3          117.9          139.4
    0.1313              -21.95          39.22          36.13           34.3         -15.82         -16.96         -155.2          68.57         -160.3          117.9          139.4
    0.1751              -21.95          39.22          36.13           34.3         -15.82         -16.96         -155.2          68.57         -160.2          117.8          139.4
    0.2189              -21.95          39.22          36.13           34.3         -15.82         -16.96         -155.2          68.57         -160.2          117.8          139.4
    0.2626              -21.95          39.21          36.13           34.3         -15.82         -16.96         -155.2          68.57         -160.1          117.8          139.4
    0.3064              -21.94          39.21          36.12           34.3         -15.82         -16.96         -155.2          68.57         -160.1          117.8          139.4
    0.3502              -21.94          39.21          36.12          34.31         -15.82         -16.96         -155.2          68.58         -160.0          117.8          139.4
    0.3939              -21.94          39.21          36.12          34.31         -15.82         -16.96         -155.1          68.58         -159.9          117.7          139.3
    0.4377              -21.94           39.2          36.11          34.31         -15.82         -16.96         -155.1          68.58         -159.9          117.7          139.3
    0.4815              -21.94           39.2          36.11          34.31         -15.82         -16.96         -155.1          68.58         -159.8          117.7          139.3
    0.5253              -21.94           39.2          36.11          34.31         -15.82         -16.96         -155.1          68.58         -159.7          117.6          139.3
     0.569              -21.93          39.19           36.1          34.31         -15.82         -16.95         -155.0          68.59         -159.6          117.6          139.3
    0.6128              -21.93          39.19           36.1          34.32         -15.82         -16.95         -155.0          68.59         -159.5          117.6          139.2
    0.6566              -21.93          39.18           36.1          34.32         -15.82         -16.95         -155.0          68.59         -159.4          117.5          139.2
    0.7003              -21.93          39.18          36.09          34.32         -15.82         -16.95         -154.9           68.6         -159.3          117.5          139.2
    0.7441              -21.92          39.18          36.09          34.33         -15.82         -16.95         -154.9           68.6         -159.2          117.4          139.1
    0.7879              -21.92          39.17          36.08          34.33         -15.82         -16.95         -154.9          68.61         -159.1          117.4          139.1
    0.8317              -21.92          39.16          36.07          34.33         -15.81         -16.94         -154.8          68.61         -158.9          117.3          139.1
    0.8754              -21.91          39.16          36.07          34.34         -15.81         -16.94         -154.8          68.62         -158.8          117.3          139.0
    0.9192              -21.91          39.15          36.06          34.34         -15.81         -16.94         -154.7          68.62         -158.6          117.2          139.0
     0.963              -21.91          39.14          36.05          34.35         -15.81         -16.93         -154.7          68.63         -158.4          117.1          138.9
     1.007               -21.9          39.13          36.04          34.35         -15.81         -16.93         -154.6          68.64         -158.2          117.0          138.9
     1.051               -21.9          39.12          36.03          34.36         -15.81         -16.93         -154.5          68.65         -158.0          116.9          138.8
     1.094              -21.89          39.11          36.02          34.37         -15.81         -16.92         -154.4          68.65         -157.7          116.8          138.7
     1.138              -21.88           39.1          36.01          34.37         -15.81         -16.92         -154.4          68.66         -157.4          116.7          138.6
     1.182              -21.88          39.08          35.99          34.38          -15.8         -16.91         -154.2          68.68         -157.1          116.6          138.6
     1.226              -21.87          39.07          35.98          34.39          -15.8         -16.91         -154.1          68.69         -156.7          116.4          138.5
     1.269              -21.86          39.05          35.96           34.4          -15.8          -16.9         -154.0           68.7         -156.3          116.3          138.3
     1.313              -21.85          39.03          35.94          34.42          -15.8         -16.89         -153.8          68.72         -155.8          116.1          138.2
     1.357              -21.83           39.0          35.91          34.43         -15.79         -16.89         -153.7          68.74         -155.3          115.8          138.1
     1.401              -21.82          38.98          35.89          34.45         -15.79         -16.88         -153.5          68.76         -154.7          115.6          137.9
     1.444               -21.8          38.94          35.85          34.47         -15.79         -16.86         -153.2          68.79         -153.9          115.3          137.7
     1.488              -21.78          38.91          35.82          34.49         -15.78         -16.85         -153.0          68.82         -153.0          114.9          137.4
     1.532              -21.76          38.86          35.77          34.52         -15.77         -16.83         -152.7          68.85         -152.0          114.5          137.2
     1.576              -21.73          38.81          35.72          34.55         -15.77         -16.82         -152.3          68.89         -150.8          114.0          136.8
      1.62              -21.69          38.75          35.65          34.59         -15.76         -16.79         -151.8          68.94         -149.4          113.4          136.4
     1.663              -21.65          38.67          35.58          34.63         -15.75         -16.77         -151.3          69.01         -147.6          112.7          136.0
     1.707               -21.6          38.58          35.48          34.69         -15.74         -16.73         -150.6          69.08         -145.5          111.8          135.4
     1.751              -21.54          38.46          35.37          34.76         -15.72         -16.69         -149.8          69.17         -142.8          110.7          134.6
     1.795              -21.46          38.32          35.22          34.85          -15.7         -16.64         -148.7          69.29         -139.5          109.4          133.7
     1.838              -21.36          38.14          35.04          34.96         -15.68         -16.57         -147.4          69.43         -135.4          107.7          132.6
     1.882              -21.24          37.91          34.81           35.1         -15.65         -16.49         -145.7          69.62         -130.1          105.5          131.1
     1.926              -21.08          37.61          34.51          35.28         -15.61         -16.39         -143.6          69.85         -123.3          102.7          129.3
      1.97              -20.87          37.24          34.13          35.51         -15.56         -16.25         -140.9          70.15         -114.6          99.19          126.9
     2.013              -20.61          36.76          33.64           35.8         -15.49         -16.08         -137.4          70.54         -103.5          94.65          123.9
     2.057              -20.28          36.15          33.03          36.17         -15.41         -15.86         -133.0          71.02         -89.56          88.95          120.0
     2.101              -19.88          35.41          32.29          36.62         -15.31         -15.59         -127.7          71.61         -72.55          81.99          115.4
     2.145              -19.42          34.55          31.42          37.14          -15.2         -15.28         -121.5           72.3         -52.84          73.93          110.0
     2.189              -18.91          33.63          30.49           37.7         -15.08         -14.95         -114.7          73.04          -31.5          65.21          104.1
     2.232              -18.41           32.7          29.55          38.27         -14.95         -14.62         -108.0          73.78         -10.16          56.48          98.26
     2.276              -17.94          31.84          28.69          38.79         -14.84         -14.31         -101.8          74.47          9.546          48.42          92.86
      2.32              -17.54          31.11          27.94          39.24         -14.74         -14.04         -96.48          75.06          26.55          41.46          88.19
     2.364              -17.21           30.5          27.33          39.61         -14.66         -13.82         -92.09          75.54           40.5          35.76          84.37
     2.407              -16.95          30.02          26.84           39.9         -14.59         -13.65          -88.6          75.93           51.6          31.22          81.32
     2.451              -16.75          29.64          26.46          40.13         -14.54         -13.51         -85.87          76.23          60.29          27.67          78.94
     2.495              -16.59          29.35          26.17          40.31          -14.5         -13.41         -83.74          76.47          67.05           24.9          77.08
     2.539              -16.46          29.12          25.93          40.45         -14.47         -13.32         -82.08          76.65          72.34          22.73          75.63
     2.583              -16.36          28.94          25.75          40.56         -14.45         -13.26         -80.77           76.8           76.5          21.03          74.49
